/* XPM */
static const char *xing_r[] = {
"22 16 148 2 0 0",
"   c #F2878F",
"!  c #FF8B97",
"#  c #F44D57",
"$  c #FD7F83",
"%  c #F5B4B2",
"&  c #F64B54",
"'  c #FF4D4C",
"(  c #FE4A4B",
")  c #F7A7A0",
"*  c #FFD0D1",
"+  c #F45A5C",
",  c #F65248",
"-  c #EA5046",
".  c #FF524F",
"/  c #F05455",
"0  c #FBD0C9",
"1  c #FAA4A7",
"2  c #F9616E",
"3  c #FF4C4E",
"4  c #F64E45",
"5  c #F6514F",
"6  c #F94C48",
"7  c #FC4A4A",
"8  c #F3636D",
"9  c #FEB1B9",
":  c #E9A49D",
";  c #FC7079",
"<  c #F44D61",
"=  c #F95353",
">  c #FF464F",
"?  c #F94C4E",
"@  c #FD4D4F",
"A  c #FF494B",
"B  c #FD504A",
"C  c #FF4C4D",
"D  c #FE4855",
"E  c #F5484C",
"F  c #F15C62",
"G  c #FB7F81",
"H  c #F6BBAB",
"I  c #FC8696",
"J  c #FF4D58",
"K  c #FF4344",
"L  c #FF4B4A",
"M  c #FF4846",
"N  c #F74F4C",
"O  c #F74D50",
"P  c #FD4F51",
"Q  c #FD4E49",
"R  c #F54D4A",
"S  c #FD4A50",
"T  c #FA5050",
"U  c #FD504C",
"V  c #F9494C",
"W  c #FF494E",
"X  c #F24C4C",
"Y  c #FE848F",
"Z  c #F96468",
"[  c #FF524E",
"]  c #F5504C",
"^  c #F85050",
"_  c #F24F48",
"`  c #FF4E4E",
"a  c #FF4748",
"b  c #F55148",
"c  c #F84D55",
"d  c #F25157",
"e  c #FD4B3F",
"f  c #FD4B4B",
"g  c #F95D60",
"h  c #FCCBC7",
"i  c #F64D54",
"j  c #FF4D49",
"k  c #FB4E4A",
"l  c #F8504D",
"m  c #F94B4A",
"n  c #FA4A4A",
"o  c #FC4E4D",
"p  c #FA4B48",
"q  c #FF4C49",
"r  c #FD4B49",
"s  c #FB4B56",
"t  c #FBC3C2",
"u  c #FC9E9E",
"v  c #F44B4E",
"w  c #FE4B51",
"x  c #FF4D53",
"y  c #FB4C51",
"z  c #FC4D52",
"{  c #FA494F",
"|  c #F74D4D",
"}  c #FF9999",
"~  c #F86369",
" ! c #FC494D",
"!! c #FC4C4E",
"#! c #FA4E4E",
"$! c #F54C49",
"%! c #F44C49",
"&! c #F64E4D",
"'! c #F64C4C",
"(! c #F94F50",
")! c #F9666C",
"*! c #F86D70",
"+! c #FE4E4E",
",! c #FD494A",
"-! c #FB4947",
".! c #FC4F4B",
"/! c #FE524E",
"0! c #FC4C4C",
"1! c #F94949",
"2! c #FB4F4F",
"3! c #F44B46",
"4! c #F67B7E",
"5! c #FE6F6B",
"6! c #FA474A",
"7! c #FC5453",
"8! c #FA5553",
"9! c #FA4A4D",
":! c #F8484B",
";! c #F64E4E",
"<! c #FF4B50",
"=! c #F35146",
">! c #F88187",
"?! c #FF6968",
"@! c #FB4E47",
"A! c #F94D49",
"B! c #F7494A",
"C! c #FF4A51",
"D! c #FF4D54",
"E! c #FB4D4F",
"F! c #F94D4D",
"G! c #FB4D4C",
"H! c #FA7E88",
"I! c #F26A6E",
"J! c #FB4E50",
"K! c #F74C54",
"L! c #EF686C",
"M! c #F95C63",
"N! c #EB4F52",
"O! c #FD4E53",
"P! c #F07D8A",
"Q! c #FF8D95",
"R! c #F89FA3",
"S! c #FFD3D2",
"T! c #FEC4C3",
"U! c #F8877F",
"V! c #F69BA4",
"W! c None",
"W!W!W!W!W!W!W!W!W!W!W!  W!W!W!W!W!W!W!W!W!W!",
"W!W!W!W!W!W!W!W!W!W!! # $ W!W!W!W!W!W!W!W!W!",
"W!W!W!W!W!W!W!W!W!% & ' ( ) W!W!W!W!W!W!W!W!",
"W!W!W!W!W!W!W!W!* + , - . / 0 W!W!W!W!W!W!W!",
"W!W!W!W!W!W!W!1 2 3 4 5 6 7 8 9 W!W!W!W!W!W!",
"W!W!W!W!: ; < = > ? @ A B C D E F G H W!W!W!",
"W!W!W!I J K L M N O P Q R S T U V W X Y W!W!",
"W!W!W!W!Z [ ] ^ _ ` a b c d e 7 @ f g W!W!W!",
"W!W!W!W!h i j k N l m n o p q 5 r s t W!W!W!",
"W!W!W!W!W!u v O w x y z x { O | v } W!W!W!W!",
"W!W!W!W!W!W!~  !!!#!$!%!&!'!(!C )!W!W!W!W!W!",
"W!W!W!W!W!W!*!+!,!-!.!/!0!1!2!3!4!W!W!W!W!W!",
"W!W!W!W!W!W!5!6!7!8!9!:!;!(!<!=!>!W!W!W!W!W!",
"W!W!W!W!W!W!?!@!A!B!C!D!E!F!G!a H!W!W!W!W!W!",
"W!W!W!W!W!W!I!J!K!L!W!W!W!M!N!O!P!W!W!W!W!W!",
"W!W!W!W!W!W!Q!R!S!W!W!W!W!W!T!U!V!W!W!W!W!W!"
};
