/* XPM */
static const char *xing_k[] = {
"22 16 2 1 0 0",
"  c #D6D3D6",
"! c None",
"!!!!!!!!!!! !!!!!!!!!!",
"!!!!!!!!!!   !!!!!!!!!",
"!!!!!!!!!     !!!!!!!!",
"!!!!!!!!       !!!!!!!",
"!!!!!!           !!!!!",
"!!!!               !!!",
"!!!                 !!",
"!!!!               !!!",
"!!!!               !!!",
"!!!!!             !!!!",
"!!!!!!           !!!!!",
"!!!!!!           !!!!!",
"!!!!!!           !!!!!",
"!!!!!!           !!!!!",
"!!!!!!    !!!    !!!!!",
"!!!!!!  !!!!!!!  !!!!!"
};
